HIERARCHY
ROOT Hips
{
	OFFSET 0.00000 0.00000 0.00000
	CHANNELS 6 Xposition Yposition Zposition Zrotation Yrotation Xrotation 
	JOINT LHipJoint
	{
		OFFSET 0 0 0
		CHANNELS 3 Zrotation Yrotation Xrotation
		JOINT LeftUpLeg
		{
			OFFSET 1.53794 -1.55850 0.93568
			CHANNELS 3 Zrotation Yrotation Xrotation
			JOINT LeftLeg
			{
				OFFSET 2.28545 -6.27922 0.00000
				CHANNELS 3 Zrotation Yrotation Xrotation
				JOINT LeftFoot
				{
					OFFSET 2.37329 -6.52057 0.00000
					CHANNELS 3 Zrotation Yrotation Xrotation
					JOINT LeftToeBase
					{
						OFFSET 0.14846 -0.40788 2.09160
						CHANNELS 3 Zrotation Yrotation Xrotation
						End Site
						{
							OFFSET 0.00000 -0.00000 1.07536
						}
					}
				}
			}
		}
	}
	JOINT RHipJoint
	{
		OFFSET 0 0 0
		CHANNELS 3 Zrotation Yrotation Xrotation
		JOINT RightUpLeg
		{
			OFFSET -1.78290 -1.55850 0.93568
			CHANNELS 3 Zrotation Yrotation Xrotation
			JOINT RightLeg
			{
				OFFSET -2.24144 -6.15831 0.00000
				CHANNELS 3 Zrotation Yrotation Xrotation
				JOINT RightFoot
				{
					OFFSET -2.35091 -6.45907 0.00000
					CHANNELS 3 Zrotation Yrotation Xrotation
					JOINT RightToeBase
					{
						OFFSET -0.14428 -0.39641 2.07944
						CHANNELS 3 Zrotation Yrotation Xrotation
						End Site
						{
							OFFSET -0.00000 -0.00000 1.06864
						}
					}
				}
			}
		}
	}
	JOINT LowerBack
	{
		OFFSET 0 0 0
		CHANNELS 3 Zrotation Yrotation Xrotation
		JOINT Spine
		{
			OFFSET -0.08841 2.11430 -0.15818
			CHANNELS 3 Zrotation Yrotation Xrotation
			JOINT Spine1
			{
				OFFSET -0.00033 2.12605 -0.08097
				CHANNELS 3 Zrotation Yrotation Xrotation
				JOINT Neck
				{
					OFFSET 0 0 0
					CHANNELS 3 Zrotation Yrotation Xrotation
					JOINT Neck1
					{
						OFFSET 0.04431 1.59447 0.43193
						CHANNELS 3 Zrotation Yrotation Xrotation
						JOINT Head
						{
							OFFSET 0.00455 1.62017 -0.58852
							CHANNELS 3 Zrotation Yrotation Xrotation
							End Site
							{
								OFFSET -0.00920 1.72955 -0.25850
							}
						}
					}
				}
				JOINT LeftShoulder
				{
					OFFSET 0 0 0
					CHANNELS 3 Zrotation Yrotation Xrotation
					JOINT LeftArm
					{
						OFFSET 2.86490 1.49927 -0.33774
						CHANNELS 3 Zrotation Yrotation Xrotation
						JOINT LeftForeArm
						{
							OFFSET 4.87408 -0.00000 0.00000
							CHANNELS 3 Zrotation Yrotation Xrotation
							JOINT LeftHand
							{
								OFFSET 2.76729 -0.00000 0.00000
								CHANNELS 3 Zrotation Yrotation Xrotation
								JOINT LeftFingerBase
								{
									OFFSET 0 0 0
									CHANNELS 3 Zrotation Yrotation Xrotation
									JOINT LeftHandIndex1
									{
										OFFSET 0.98922 -0.00000 0.00000
										CHANNELS 3 Zrotation Yrotation Xrotation
										End Site
										{
											OFFSET 0.79753 -0.00000 0.00000
										}
									}
								}
								JOINT LThumb
								{
									OFFSET 0 0 0
									CHANNELS 3 Zrotation Yrotation Xrotation
									End Site
									{
										OFFSET 0.80972 -0.00000 0.80972
									}
								}
							}
						}
					}
				}
				JOINT RightShoulder
				{
					OFFSET 0 0 0
					CHANNELS 3 Zrotation Yrotation Xrotation
					JOINT RightArm
					{
						OFFSET -2.94414 1.45463 -0.25291
						CHANNELS 3 Zrotation Yrotation Xrotation
						JOINT RightForeArm
						{
							OFFSET -4.71404 -0.00000 0.00000
							CHANNELS 3 Zrotation Yrotation Xrotation
							JOINT RightHand
							{
								OFFSET -2.83468 -0.00000 0.00000
								CHANNELS 3 Zrotation Yrotation Xrotation
								JOINT RightFingerBase
								{
									OFFSET 0 0 0
									CHANNELS 3 Zrotation Yrotation Xrotation
									JOINT RightHandIndex1
									{
										OFFSET -0.86820 -0.00000 0.00000
										CHANNELS 3 Zrotation Yrotation Xrotation
										End Site
										{
											OFFSET -0.69996 -0.00000 0.00000
										}
									}
								}
								JOINT RThumb
								{
									OFFSET 0 0 0
									CHANNELS 3 Zrotation Yrotation Xrotation
									End Site
									{
										OFFSET -0.71065 -0.00000 0.71065
									}
								}
							}
						}
					}
				}
			}
		}
	}
}
MOTION
Frames: 10
Frame Time: .0083333
0.6408 15.8632 29.3131 0 0 0 0 0 0 -21 0 0 0 0 0 0 0 0 0 0 0 0 0 0 21 0 0 0 0 0 0 0 0 0 0 0 0 0 0 0 0 0 0 0 0 0 0 -16 0 0 21 0 0 11 0 0 0 -8 0 0 0 0 0 0 0 0 0 0 0 0 0 0 0 0 0 0 0 0 8 0 0 0 0 0 0 0 0 0 0 0 0 0 0 0 0 0
0.6408 15.8632 29.3131 176.7860 3.3764 -172.6030 0.0000 0.0000 0.0000 -24.0820 -13.1777 -13.2851 2.1957 9.2624 26.6197 -1.0633 17.9782 -8.6959 0.0857 1.8880 5.1962 0.0000 0.0000 0.0000 22.1022 7.2163 -10.1323 -1.8996 -8.6538 24.7181 0.4983 -17.0231 -18.7414 -0.2778 3.3900 -9.3665 -7.8243 0.5615 -5.8380 1.2626 1.2530 -0.5638 5.8204 0.5539 2.4993 4.4850 0.9370 -32.9616 -3.6913 2.1537 36.8687 -1.8618 1.4484 20.1158 0.0000 -0.0000 0.0000 -93.6344 -1.8313 18.8898 11.6946 -19.3450 -2.0000 -0.0000 -0.0000 46.4361 -2.9973 6.4094 -0.3349 -7.1250 0.0000 -0.0000 -24.3967 35.3851 6.2397 0.0000 -0.0000 0.0000 88.4386 -4.2656 4.5574 -13.8039 22.4537 -2.7528 0.0000 0.0000 34.5301 -1.2873 -6.5395 0.1466 7.1250 -0.0000 -0.0000 21.0743 -35.7800 5.0598
0.6398 15.8633 29.3087 176.7780 3.4051 -172.6000 0.0000 0.0000 0.0000 -24.1016 -13.1693 -13.2545 2.1947 9.2604 26.6134 -1.0662 18.0070 -8.7647 0.0886 1.9193 5.2827 0.0000 0.0000 0.0000 22.0861 7.1868 -10.1347 -1.8996 -8.6538 24.7182 0.4976 -16.9973 -18.7019 -0.2832 3.4228 -9.4582 -7.9592 0.8244 -6.8613 1.1763 1.7116 -0.2002 5.8771 0.7285 3.3810 4.5611 2.5174 -35.4417 -3.9166 1.3504 37.5147 -2.6473 0.0742 21.1626 -0.0000 -0.0000 0.0000 -93.4642 -2.1739 19.7816 11.6495 -19.2769 -1.9851 -0.0000 -0.0000 46.8563 -2.8149 6.1778 -0.3032 -7.1250 0.0000 -0.0000 -24.1891 35.1856 6.3066 -0.0000 -0.0000 0.0000 88.7624 -4.0662 3.7837 -13.8713 22.5505 -2.7786 0.0000 0.0000 34.0030 -1.4719 -6.7845 0.1739 7.1250 -0.0000 -0.0000 20.9918 -36.0202 4.9062
0.6398 15.8641 29.3058 176.7690 3.4010 -172.6010 0.0000 0.0000 0.0000 -24.1102 -13.0953 -13.2768 2.1948 9.2606 26.6139 -1.0536 17.9118 -8.7882 0.0868 1.9006 5.2311 0.0000 0.0000 0.0000 22.0826 7.2239 -10.0972 -1.8979 -8.6501 24.7067 0.4970 -17.0197 -18.7522 -0.2841 3.4281 -9.4729 -8.1346 1.0869 -7.8555 1.1140 2.1752 0.1482 5.9974 0.9039 4.2296 2.7655 1.5497 -38.3314 -2.9141 0.1927 39.1993 -2.3598 -0.4641 23.8795 -0.0000 0.0000 0.0000 -93.3180 -2.5524 20.7111 11.5667 -19.1517 -1.9578 -0.0000 -0.0000 47.2260 -2.7943 6.0429 -0.2944 -7.1250 0.0000 -0.0000 -24.1348 35.0636 6.3687 -0.0000 0.0000 0.0000 89.0620 -3.8799 2.8109 -13.9361 22.6433 -2.8035 0.0000 0.0000 33.8497 -1.4932 -6.8942 0.1793 7.1250 -0.0000 -0.0000 21.0037 -36.1241 4.8524
0.6390 15.8642 29.3016 176.7850 3.4088 -172.5830 0.0000 0.0000 0.0000 -24.0985 -13.1260 -13.2659 2.1950 9.2610 26.6154 -1.0608 17.9665 -8.7817 0.0871 1.9036 5.2393 0.0000 0.0000 0.0000 22.0962 7.2294 -10.0967 -1.8966 -8.6472 24.6980 0.5030 -17.0437 -18.7181 -0.2844 3.4296 -9.4772 -7.4928 0.9093 -6.6661 0.7036 1.7906 -0.4333 5.1104 0.8040 3.0438 3.3243 2.0332 -37.5010 -2.6339 0.4206 39.0940 -2.2176 -0.2685 23.5246 0.0000 0.0000 0.0000 -92.5922 -1.8049 20.2970 11.6603 -19.2933 -1.9886 -0.0000 -0.0000 46.5464 -2.8943 6.1531 -0.3105 -7.1250 0.0000 -0.0000 -24.2434 35.1579 6.3411 0.0000 0.0000 0.0000 89.6915 -4.4858 3.4060 -13.9121 22.6089 -2.7942 0.0000 0.0000 34.1521 -1.4962 -6.8662 0.1789 7.1250 -0.0000 -0.0000 20.9940 -36.0981 4.8641
0.6383 15.8645 29.2979 176.7910 3.4165 -172.5730 0.0000 0.0000 0.0000 -24.0979 -13.1238 -13.2633 2.1956 9.2622 26.6190 -1.0618 17.9757 -8.7956 0.0874 1.9067 5.2480 0.0000 0.0000 0.0000 22.0999 7.2383 -10.0845 -1.8948 -8.6433 24.6858 0.5054 -17.0566 -18.7113 -0.2854 3.4359 -9.4947 -7.2203 0.9400 -6.5397 0.4520 1.8111 -0.5467 4.6884 0.8320 2.8682 3.2985 1.9920 -37.9542 -2.4004 0.1699 39.4718 -2.1930 -0.3274 23.9957 0.0000 -0.0000 0.0000 -92.1410 -1.6306 20.5580 11.6842 -19.3293 -1.9965 -0.0000 -0.0000 46.2608 -2.9685 6.2086 -0.3213 -7.1250 0.0000 -0.0000 -24.3166 35.2038 6.3336 0.0000 -0.0000 0.0000 90.1674 -4.6612 3.2676 -13.9267 22.6298 -2.7998 0.0000 0.0000 34.2071 -1.5178 -6.9060 0.1825 7.1250 -0.0000 -0.0000 20.9873 -36.1367 4.8413
0.6376 15.8646 29.2942 176.7960 3.4217 -172.5620 0.0000 0.0000 0.0000 -24.0969 -13.1286 -13.2616 2.1967 9.2643 26.6258 -1.0633 17.9886 -8.8067 0.0876 1.9095 5.2556 0.0000 0.0000 0.0000 22.1039 7.2470 -10.0748 -1.8934 -8.6403 24.6766 0.5074 -17.0698 -18.7097 -0.2860 3.4392 -9.5040 -6.9160 0.9479 -6.3303 0.1925 1.7933 -0.7019 4.2355 0.8451 2.6092 3.3404 1.9951 -38.0398 -2.1648 -0.0387 39.6907 -2.1500 -0.3636 24.2115 0.0000 -0.0000 0.0000 -91.6840 -1.3951 20.7711 11.7206 -19.3844 -2.0086 -0.0000 -0.0000 45.8824 -3.0857 6.3214 -0.3401 -7.1250 0.0000 -0.0000 -24.4396 35.2991 6.3089 0.0000 -0.0000 0.0000 90.6400 -4.8825 3.1868 -13.9395 22.6481 -2.8048 0.0000 0.0000 34.3034 -1.5215 -6.9185 0.1833 7.1250 -0.0000 -0.0000 20.9877 -36.1486 4.8348
0.6368 15.8647 29.2906 176.8020 3.4276 -172.5500 0.0000 0.0000 0.0000 -24.0970 -13.1392 -13.2575 2.1977 9.2664 26.6321 -1.0658 18.0088 -8.8205 0.0881 1.9148 5.2702 0.0000 0.0000 0.0000 22.1067 7.2497 -10.0695 -1.8921 -8.6377 24.6683 0.5091 -17.0788 -18.7042 -0.2867 3.4433 -9.5154 -6.4788 1.1212 -6.1035 -0.2752 1.9972 -0.8912 3.5084 0.9743 2.2928 3.7092 1.9149 -37.9232 -1.9575 -0.5797 39.7780 -2.2725 -0.4575 24.2192 -0.0000 0.0000 0.0000 -90.8314 -1.1236 21.6007 11.7535 -19.4339 -2.0195 -0.0000 -0.0000 45.3666 -3.2282 6.4484 -0.3629 -7.1250 0.0000 -0.0000 -24.5866 35.4053 6.2834 -0.0000 0.0000 0.0000 91.5559 -5.1880 2.5588 -13.9865 22.7154 -2.8229 0.0000 0.0000 34.4707 -1.5326 -6.9117 0.1845 7.1250 -0.0000 -0.0000 20.9770 -36.1429 4.8352
0.6359 15.8646 29.2870 176.8070 3.4343 -172.5390 0.0000 0.0000 0.0000 -24.0982 -13.1485 -13.2529 2.1987 9.2683 26.6382 -1.0684 18.0296 -8.8295 0.0884 1.9176 5.2780 0.0000 0.0000 0.0000 22.1084 7.2485 -10.0657 -1.8911 -8.6354 24.6612 0.5105 -17.0845 -18.6972 -0.2878 3.4498 -9.5338 -5.7610 1.7878 -5.9402 -1.2799 2.8798 -1.0781 2.1206 1.4489 2.0021 4.4853 1.3937 -37.8443 -1.5807 -2.2279 39.8527 -2.7103 -0.8258 24.1520 -0.0000 0.0000 0.0000 -88.9394 -0.9779 24.3125 11.7762 -19.4681 -2.0271 -0.0000 -0.0000 44.4273 -3.4539 6.6250 -0.3990 -7.1250 0.0000 -0.0000 -24.8128 35.5509 6.2543 -0.0000 0.0000 0.0000 93.6514 -5.5293 0.3373 -14.1381 22.9318 -2.8817 0.0000 0.0000 34.7589 -1.5549 -6.8902 0.1866 7.1250 -0.0000 -0.0000 20.9537 -36.1243 4.8393
0.6351 15.8646 29.2833 176.8130 3.4437 -172.5300 0.0000 0.0000 0.0000 -24.0989 -13.1540 -13.2462 2.1994 9.2697 26.6427 -1.0710 18.0500 -8.8377 0.0887 1.9210 5.2874 0.0000 0.0000 0.0000 22.1110 7.2462 -10.0618 -1.8902 -8.6335 24.6556 0.5112 -17.0867 -18.6909 -0.2887 3.4551 -9.5485 -4.8674 2.7176 -5.6664 -2.5967 4.1292 -1.3273 0.3333 2.1176 1.6578 5.4272 0.6290 -37.7672 -1.0374 -4.4987 39.9245 -3.2685 -1.3616 24.0304 -0.0000 0.0000 0.0000 -86.4404 -0.9280 28.1431 11.8253 -19.5421 -2.0435 -0.0000 -0.0000 43.1874 -3.7216 6.8149 -0.4422 -7.1250 0.0000 -0.0000 -25.0762 35.7053 6.2285 -0.0000 0.0000 0.0000 96.4110 -5.8459 -2.6761 -14.3695 23.2605 -2.9725 0.0000 0.0000 35.0157 -1.5758 -6.8943 0.1892 7.1250 -0.0000 -0.0000 20.9381 -36.1294 4.8325
